<?xml version="1.0" standalone="no"?>
<!DOCTYPE svg PUBLIC "-//W3C//DTD SVG 20010904//EN"
 "http://www.w3.org/TR/2001/REC-SVG-20010904/DTD/svg10.dtd">
<svg version="1.0" xmlns="http://www.w3.org/2000/svg"
 width="357.000000pt" height="357.000000pt" viewBox="0 0 357.000000 357.000000"
 preserveAspectRatio="xMidYMid meet">
<metadata>
Created by potrace 1.11, written by Peter Selinger 2001-2013
</metadata>
<g transform="translate(0.000000,357.000000) scale(0.100000,-0.100000)"
fill="#000000" stroke="none">
<path d="M1707 3453 c-18 -33 -27 -277 -10 -294 21 -21 43 2 43 47 l0 44 85 0
85 0 0 -49 c0 -36 4 -50 17 -55 9 -4 21 -2 27 4 10 10 30 276 21 298 -3 7 -15
12 -27 10 -21 -3 -23 -9 -26 -80 l-3 -78 -84 0 -84 0 -3 77 c-2 63 -6 78 -20
81 -9 2 -18 -1 -21 -5z"/>
<path d="M1333 3409 c-18 -5 -33 -14 -33 -20 0 -25 62 -275 70 -283 14 -14
140 21 168 47 55 51 67 119 32 188 -29 57 -71 79 -145 78 -33 0 -75 -5 -92
-10z m164 -54 c33 -23 49 -85 32 -120 -17 -35 -55 -63 -94 -71 l-31 -6 -23 97
c-19 81 -21 99 -10 106 23 14 103 10 126 -6z"/>
<path d="M2119 3363 c-31 -72 -51 -160 -44 -192 7 -33 48 -75 88 -90 65 -25
154 -5 178 40 19 37 59 161 59 186 0 17 -6 23 -22 23 -20 0 -27 -12 -51 -89
-16 -49 -36 -96 -46 -105 -30 -27 -98 -17 -134 19 -23 23 -21 55 10 153 22 71
24 85 12 93 -24 15 -29 11 -50 -38z"/>
<path d="M1111 3326 c-10 -12 -3 -32 35 -105 26 -50 45 -93 43 -96 -3 -2 -56
19 -119 47 -127 56 -162 63 -168 35 -4 -20 101 -238 123 -257 10 -8 17 -7 29
6 15 15 13 22 -29 101 -26 47 -44 87 -42 90 3 2 27 -7 54 -20 72 -37 201 -80
218 -73 8 3 15 13 15 23 -1 24 -122 256 -136 260 -6 2 -16 -3 -23 -11z"/>
<path d="M2470 3128 c-41 -62 -74 -122 -74 -133 -1 -34 30 -29 54 9 12 20 28
36 35 36 7 0 20 3 28 6 14 5 27 -37 53 -163 2 -12 13 -27 24 -33 39 -21 37 17
-6 182 -4 13 6 19 48 27 29 6 64 12 78 13 15 2 26 10 28 22 6 31 -11 37 -69
25 -30 -6 -77 -14 -106 -18 -57 -8 -57 -10 -10 55 30 43 33 77 7 82 -10 2 -42
-38 -90 -110z"/>
<path d="M725 3090 c-9 -14 8 -38 94 -140 74 -88 94 -105 111 -95 21 13 7 40
-76 141 -81 99 -112 121 -129 94z"/>
<path d="M1577 3034 c-227 -35 -403 -113 -583 -258 -461 -371 -569 -1052 -245
-1553 201 -311 532 -510 896 -541 549 -45 1051 286 1225 806 75 226 80 482 13
712 -119 413 -483 743 -912 826 -106 21 -288 25 -394 8z m446 -107 c519 -136
873 -641 818 -1167 -34 -322 -203 -614 -462 -797 -210 -148 -486 -222 -736
-195 -505 53 -904 428 -983 925 -20 120 -8 339 24 455 113 408 450 718 866
797 119 23 349 14 473 -18z"/>
<path d="M1041 2615 c-57 -54 -63 -70 -25 -79 14 -4 38 -16 53 -26 14 -11 67
-33 116 -51 105 -36 132 -54 65 -44 -25 3 -53 9 -64 12 -14 4 -16 2 -11 -8 5
-8 -1 -5 -13 5 -12 11 -22 16 -22 11 0 -4 -6 -2 -13 4 -8 6 -17 8 -20 4 -4 -3
-7 -1 -7 5 0 6 -7 9 -15 6 -8 -4 -15 -1 -15 6 0 6 -5 10 -12 8 -6 -2 -22 6
-36 19 -33 31 -67 29 -89 -3 -10 -14 -26 -34 -35 -45 -10 -10 -18 -26 -18 -34
0 -7 -7 -18 -16 -23 -9 -5 -16 -13 -15 -18 0 -15 -42 -94 -51 -94 -4 0 -7 -10
-7 -22 1 -13 -3 -41 -9 -63 -43 -162 -51 -216 -34 -242 4 -7 68 -16 162 -23
85 -6 156 -13 157 -13 1 -1 -14 -36 -33 -77 -42 -91 -70 -183 -57 -187 11 -4
-2 -108 -17 -135 -6 -10 -10 -25 -10 -34 0 -11 -9 -8 -37 15 -37 30 -86 41
-98 21 -10 -16 54 -95 78 -95 17 0 26 -11 39 -50 10 -28 15 -60 13 -72 -4 -17
13 -40 78 -105 46 -46 96 -93 113 -106 26 -21 27 -23 7 -19 -13 3 -23 3 -23 1
0 -8 54 -27 70 -26 26 3 62 -32 54 -51 -4 -12 -13 -16 -22 -12 -9 3 -13 2 -8
-2 4 -4 15 -8 24 -9 10 -1 27 -2 40 -3 12 0 22 -7 22 -15 0 -8 16 -23 35 -35
19 -11 35 -16 35 -11 0 5 7 7 16 3 12 -4 12 -8 4 -13 -17 -11 22 -23 44 -14
15 6 15 8 1 24 -14 15 -13 18 10 28 38 17 42 15 55 -23 6 -19 20 -37 31 -40
11 -4 22 -5 23 -3 1 1 7 15 14 31 6 15 19 27 28 27 15 0 15 -21 -2 -82 -5 -15
1 -18 33 -17 37 1 37 2 8 9 -23 5 -11 8 48 11 43 2 85 1 94 -2 32 -11 102 7
123 32 11 13 19 18 18 10 -4 -18 24 -25 59 -16 16 4 23 11 19 20 -6 18 8 19
35 4 29 -15 59 14 59 56 0 36 16 56 37 48 13 -5 11 -9 -7 -23 -14 -11 -21 -25
-18 -41 l3 -26 54 24 c45 20 51 26 41 38 -10 13 -8 15 16 16 16 1 34 2 39 4 6
1 18 3 28 3 10 1 16 6 13 11 -7 10 63 55 72 46 3 -3 -3 -15 -14 -28 -10 -13 2
0 28 28 27 27 54 61 61 75 7 14 21 37 31 52 18 27 18 28 0 35 -22 8 -50 33
-37 33 4 0 21 -7 38 -16 29 -15 30 -15 57 18 15 18 28 38 28 44 0 7 7 14 15
17 16 7 79 126 71 134 -3 3 -13 0 -22 -8 -9 -7 -30 -19 -48 -25 -17 -6 -40
-15 -50 -19 -18 -8 -19 -4 -13 70 3 48 11 81 19 86 23 15 29 10 14 -14 -12
-18 -13 -27 -3 -46 20 -39 40 -47 85 -32 38 13 40 16 37 49 -3 47 -33 67 -91
63 -34 -2 -44 1 -44 12 0 34 11 45 38 38 15 -3 39 -5 53 -3 26 3 26 4 13 31
-18 36 -56 57 -80 43 -14 -8 -22 -5 -37 14 -10 13 -27 24 -37 24 -26 0 -60
-38 -60 -67 0 -21 4 -24 29 -20 15 3 38 10 50 16 19 11 21 9 21 -16 0 -15 -9
-57 -19 -93 -18 -60 -26 -65 -22 -13 2 22 -32 53 -58 53 -10 0 -12 -10 -7 -42
5 -38 4 -41 -8 -25 -20 26 -52 20 -80 -15 -28 -37 -22 -50 23 -52 30 -1 30 -2
24 -41 -3 -22 -10 -41 -15 -43 -4 -2 -8 -11 -8 -21 0 -9 -13 -21 -30 -28 -16
-6 -30 -8 -30 -3 0 4 6 10 14 13 16 7 26 53 14 65 -6 6 -3 16 7 26 15 15 15
16 -2 16 -22 0 -83 -56 -83 -76 0 -7 4 -15 9 -19 10 -6 11 -45 1 -45 -10 0
-33 64 -30 85 1 11 13 30 27 42 l26 23 -29 10 c-20 8 -35 8 -52 1 l-23 -11 6
62 c10 103 12 108 43 108 l27 -1 -27 -20 c-50 -37 -27 -109 34 -109 51 0 76
64 41 103 -17 18 -17 19 7 17 14 -2 32 0 40 3 8 3 24 7 34 9 18 3 19 4 3 20
-9 9 -17 20 -17 23 0 11 -44 44 -58 45 -7 0 -20 -9 -29 -20 -19 -21 -39 -28
-27 -9 11 19 13 79 2 79 -5 0 -23 -8 -39 -17 -22 -13 -30 -25 -28 -43 3 -63
-4 -59 -27 14 -26 85 -31 136 -13 136 6 0 20 -5 32 -12 12 -6 35 -13 50 -15
27 -3 28 -2 23 33 -5 30 -4 35 11 30 27 -8 159 -24 248 -32 44 -3 114 -12 155
-20 41 -8 78 -14 83 -14 4 0 7 18 7 39 0 22 4 42 10 46 5 3 6 13 3 22 -4 10
-2 14 5 9 16 -10 5 109 -13 145 -9 16 -17 29 -19 29 -2 0 3 -36 11 -80 9 -55
11 -86 4 -98 -8 -13 -10 -7 -11 28 0 25 -7 63 -15 85 -17 47 -19 89 -5 80 6
-3 7 1 4 9 -3 9 -10 16 -14 16 -4 0 -13 15 -19 32 -10 27 -9 35 3 43 13 10 12
17 -4 53 -11 24 -15 40 -9 36 7 -4 7 1 0 15 -13 24 -15 24 -175 12 l-108 -9
-67 33 c-90 45 -249 112 -286 121 -16 4 -41 19 -55 34 -14 14 -47 39 -75 55
-27 15 -74 43 -102 61 -29 19 -55 34 -57 34 -2 0 -6 -11 -10 -23 -3 -13 -28
-52 -55 -86 -28 -34 -53 -71 -56 -81 -6 -18 -11 -17 -83 16 -137 63 -386 163
-424 169 -34 6 -41 3 -87 -40z m284 -50 c173 -70 295 -126 295 -136 0 -13 -24
-11 -45 5 -11 8 -25 12 -31 9 -7 -2 -15 1 -19 6 -3 6 -11 9 -16 6 -5 -4 -22 3
-38 15 -17 11 -33 20 -38 19 -13 -3 -47 14 -60 30 -10 12 -12 13 -13 2 0 -10
-3 -11 -13 -2 -8 6 -17 8 -20 4 -4 -3 -7 -2 -7 4 0 10 -36 26 -52 24 -5 -1 -8
3 -8 9 0 5 -6 7 -14 4 -7 -3 -16 2 -20 11 -3 9 -10 14 -15 11 -5 -3 -12 1 -15
10 -3 8 -10 13 -15 10 -5 -3 -15 2 -22 11 -12 14 -11 15 11 8 14 -4 84 -31
155 -60z m-182 10 c28 -49 20 -57 -28 -25 -16 11 -37 17 -47 14 -34 -10 -27
16 9 35 21 11 39 20 40 21 1 0 13 -20 26 -45z m1414 -269 c-15 -7 -25 -15 -22
-18 6 -6 -7 -8 -77 -10 -21 -1 -34 -6 -31 -11 4 -6 -3 -8 -15 -5 -14 4 -20 2
-16 -4 4 -7 -5 -8 -26 -3 -22 5 -30 4 -26 -4 5 -7 -3 -9 -26 -4 -77 14 -71 16
177 67 11 2 36 4 55 4 l35 0 -28 -12z m-582 -71 c35 0 65 -9 95 -27 25 -14 94
-41 154 -59 95 -29 105 -34 80 -41 -21 -5 -43 -1 -82 17 -30 14 -63 25 -73 25
-10 0 -20 4 -24 10 -3 5 -12 7 -21 3 -8 -3 -24 3 -35 13 -16 14 -22 15 -28 5
-6 -10 -13 -10 -30 -2 -11 6 -30 16 -42 22 -12 6 -23 8 -26 5 -3 -3 -17 1 -32
8 -14 7 -32 11 -38 9 -7 -3 -13 3 -13 12 0 15 5 16 33 9 17 -4 55 -8 82 -9z
m87 -334 c66 -8 74 -13 60 -37 -6 -11 -11 -13 -16 -5 -13 20 -61 12 -86 -14
-13 -14 -20 -25 -15 -25 5 0 4 -5 -3 -12 -7 -7 -12 -16 -12 -20 0 -8 77 -3
109 7 15 4 20 -1 24 -27 2 -18 4 -34 3 -34 0 -1 -27 -4 -59 -7 -43 -4 -65 -11
-83 -28 -24 -22 -26 -23 -82 -8 l-57 14 -3 70 c-2 56 -8 76 -28 102 l-25 33
108 -1 c59 0 134 -4 165 -8z m59 -191 c21 -12 26 -40 7 -40 -16 1 -53 50 -38
50 6 0 20 -5 31 -10z m109 -54 c0 -2 -7 -6 -15 -10 -8 -3 -15 -1 -15 4 0 6 7
10 15 10 8 0 15 -2 15 -4z m-92 -100 l-3 -34 -43 20 -43 21 31 18 c17 11 36
31 43 46 l12 28 3 -32 c2 -18 2 -48 0 -67z m125 63 c5 -20 5 -20 -16 -3 -12
11 -24 20 -26 21 -2 2 5 3 16 3 13 0 23 -8 26 -21z m-433 -32 c0 -19 -29 -127
-39 -145 -15 -26 -10 89 5 126 13 32 34 44 34 19z m65 -29 c25 0 32 -4 28 -14
-3 -10 2 -14 18 -14 13 0 30 -4 37 -9 22 -13 -12 -34 -40 -25 -28 10 -34 11
-74 13 -28 1 -30 3 -26 31 2 16 9 27 14 24 5 -3 24 -6 43 -6z m219 -44 c20 -8
21 -53 1 -60 -10 -4 -12 -11 -5 -23 5 -10 7 -26 5 -37 -2 -10 -4 -22 -4 -26
-1 -5 -16 -8 -35 -8 -27 0 -38 -7 -57 -34 -25 -36 -37 -39 -62 -14 -15 15 -14
16 9 22 14 4 29 4 34 1 13 -8 13 1 0 25 -5 10 -22 21 -37 25 l-28 7 28 16 c20
13 27 24 27 49 0 18 5 33 11 33 6 0 8 -7 5 -16 -4 -9 -1 -31 6 -50 l12 -33 38
30 c39 32 49 64 26 87 -13 13 -1 16 26 6z m-259 -34 c-26 -29 -13 -68 30 -86
37 -15 47 -34 17 -34 -10 0 -23 -5 -30 -12 -8 -8 -16 -5 -31 13 -27 32 -29
113 -3 128 28 17 36 12 17 -9z m583 -4 c-2 -1 -13 -10 -25 -20 -22 -18 -22
-18 -10 7 6 14 17 22 25 20 7 -3 12 -6 10 -7z m29 -28 c6 -7 13 -41 17 -75 6
-53 5 -62 -8 -57 -17 6 -28 42 -15 50 14 8 11 51 -6 68 -8 8 -15 17 -15 20 0
11 17 6 27 -6z m-1502 -35 c-2 -21 -4 -40 -4 -43 -1 -3 -8 8 -17 25 -14 27
-14 30 2 42 24 17 24 18 19 -24z m30 18 c3 -5 1 -12 -5 -16 -5 -3 -10 1 -10 9
0 18 6 21 15 7z m40 -67 c19 -30 21 -27 -27 -41 -35 -10 -38 -9 -38 9 0 27 18
58 34 58 8 0 21 -12 31 -26z m1517 -24 c-5 -35 -8 -37 -22 -10 -12 22 -6 40
14 40 8 0 11 -10 8 -30z m-338 -15 c4 -12 2 -13 -12 -7 -9 5 -24 12 -32 15 -9
3 -4 6 11 6 15 1 29 -6 33 -14z m-260 -53 c-4 -15 -11 -31 -17 -37 -7 -7 -8
-4 -3 8 3 10 6 30 6 43 0 14 4 22 10 19 6 -3 7 -18 4 -33z m226 28 c0 -5 -4
-10 -10 -10 -5 0 -10 5 -10 10 0 6 5 10 10 10 6 0 10 -4 10 -10z m160 -11 c0
-15 -4 -19 -16 -15 -9 3 -21 6 -27 6 -12 0 23 29 36 30 4 0 7 -9 7 -21z m-121
-27 c5 -10 13 -41 17 -69 7 -55 -7 -78 -26 -42 -11 19 -13 19 -24 4 -7 -10
-20 -15 -32 -12 -17 4 -17 5 2 6 28 1 35 21 23 66 -6 20 -8 43 -5 51 8 20 33
17 45 -4z m107 -2 c10 -10 8 -99 -2 -109 -5 -5 -22 41 -29 83 -7 37 8 49 31
26z m119 0 c-3 -5 -10 -10 -16 -10 -5 0 -9 5 -9 10 0 6 7 10 16 10 8 0 12 -4
9 -10z m-351 -77 c9 -22 1 -27 -29 -19 -20 5 -25 13 -25 36 0 30 0 30 24 15
13 -9 27 -23 30 -32z m185 -20 c1 -7 -3 -13 -9 -13 -5 0 -10 17 -9 38 1 33 2
34 9 12 4 -14 8 -31 9 -37z m-279 0 c0 -18 -37 -52 -62 -57 -44 -9 -58 -24
-58 -61 0 -65 73 -93 123 -48 20 18 23 63 5 81 -9 9 -8 12 5 12 27 0 38 -36
35 -114 l-3 -74 -45 22 c-25 11 -57 29 -72 40 -16 10 -35 16 -43 12 -10 -3
-18 1 -21 12 -3 9 -11 27 -16 39 -11 22 -12 56 -5 98 3 13 17 24 43 31 38 11
114 16 114 7z m110 -24 c0 -6 -7 -17 -15 -25 -8 -9 -15 -25 -15 -37 0 -15 -3
-18 -11 -10 -15 15 7 83 27 83 8 0 14 -5 14 -11z m-720 -9 c0 -5 -2 -10 -4
-10 -3 0 -8 5 -11 10 -3 6 -1 10 4 10 6 0 11 -4 11 -10z m-125 -32 c-11 -6
-28 -18 -37 -26 -15 -13 -18 -13 -18 -1 0 15 34 36 60 37 10 1 8 -2 -5 -10z
m1030 -16 c0 -31 -19 -28 -23 4 -3 18 0 25 10 22 7 -3 13 -14 13 -26z m-1015
-6 c0 -2 3 -13 6 -23 6 -14 4 -16 -6 -6 -7 6 -19 9 -26 6 -14 -5 -19 8 -7 20
7 8 33 10 33 3z m145 -16 c-3 -5 -11 -10 -16 -10 -6 0 -7 5 -4 10 3 6 11 10
16 10 6 0 7 -4 4 -10z m248 -5 c9 -23 -11 -28 -23 -5 -8 16 -8 20 4 20 7 0 16
-7 19 -15z m-301 -32 c19 -17 24 -43 8 -43 -5 0 -10 5 -10 10 0 6 -7 10 -15
10 -8 0 -15 6 -15 14 0 8 -6 17 -12 19 -7 3 -4 6 6 6 11 1 28 -6 38 -16z m288
-19 c0 -8 -4 -12 -10 -9 -5 3 -10 10 -10 16 0 5 5 9 10 9 6 0 10 -7 10 -16z
m515 -14 c3 -5 1 -10 -4 -10 -6 0 -11 5 -11 10 0 6 2 10 4 10 3 0 8 -4 11 -10z
m-745 -25 c0 -8 -4 -15 -9 -15 -5 0 -11 7 -15 15 -3 9 0 15 9 15 8 0 15 -7 15
-15z m110 -37 c0 -18 -2 -20 -9 -8 -6 8 -7 18 -5 22 9 14 14 9 14 -14z m303
15 c-7 -2 -13 -11 -13 -19 0 -12 20 -18 58 -17 16 1 11 -17 -9 -30 -11 -7 -22
-3 -42 17 -14 14 -36 26 -49 27 -21 1 -20 2 7 14 17 8 37 14 45 14 10 0 11 -2
3 -6z m-168 -23 c3 -5 1 -10 -4 -10 -6 0 -11 5 -11 10 0 6 2 10 4 10 3 0 8 -4
11 -10z m75 -19 c0 -17 -18 -21 -24 -6 -3 9 0 15 9 15 8 0 15 -4 15 -9z"/>
<path d="M766 1565 c4 -8 10 -15 15 -15 5 0 9 7 9 15 0 8 -7 15 -15 15 -9 0
-12 -6 -9 -15z"/>
<path d="M2691 1534 c0 -11 3 -14 6 -6 3 7 2 16 -1 19 -3 4 -6 -2 -5 -13z"/>
<path d="M2682 1435 c4 -4 -1 -15 -11 -24 -11 -9 -31 -38 -46 -66 -15 -27 -31
-55 -36 -61 -5 -6 -7 -18 -4 -27 7 -16 -32 -50 -47 -41 -5 3 -7 2 -6 -3 2 -5
-11 -22 -29 -38 -18 -17 -35 -43 -39 -60 l-7 -30 33 30 c18 17 39 45 46 63 8
17 21 32 28 32 16 0 77 103 74 122 -2 7 3 12 10 10 9 -2 12 4 8 16 -5 13 1 22
19 32 27 14 33 35 13 46 -7 4 -10 4 -6 -1z"/>
<path d="M855 1346 c10 -14 19 -26 22 -26 7 0 -17 39 -28 46 -6 3 -3 -5 6 -20z"/>
<path d="M990 1191 c0 -5 7 -12 16 -15 14 -5 15 -4 4 9 -14 17 -20 19 -20 6z"/>
<path d="M1006 1152 c11 -11 29 -31 40 -44 19 -24 64 -44 64 -28 0 10 -80 75
-105 84 -19 7 -19 7 1 -12z"/>
<path d="M1520 850 c0 -6 7 -10 15 -10 8 0 15 2 15 4 0 2 -7 6 -15 10 -8 3
-15 1 -15 -4z"/>
<path d="M585 2938 c-114 -63 -142 -202 -45 -223 38 -8 84 19 135 80 20 25 42
45 49 45 23 0 39 -28 31 -57 -9 -36 -87 -113 -114 -113 -34 0 -25 -44 9 -48
38 -4 91 36 128 98 57 96 35 165 -53 165 -44 0 -49 -3 -92 -53 -58 -68 -79
-79 -93 -52 -15 28 9 70 60 104 57 38 44 87 -15 54z"/>
<path d="M2780 2882 c-113 -39 -135 -50 -135 -67 0 -17 6 -20 41 -17 39 2 44
-1 90 -55 48 -56 49 -59 40 -96 -7 -26 -6 -41 2 -49 23 -23 42 4 77 114 19 62
43 130 52 152 16 37 16 39 -2 52 -10 8 -21 14 -24 13 -3 0 -67 -21 -141 -47z
m93 -69 c-9 -27 -19 -51 -22 -56 -4 -4 -22 9 -41 28 -18 19 -32 36 -29 38 8 7
84 36 96 36 9 1 7 -12 -4 -46z"/>
<path d="M1123 750 c-27 -11 -43 -40 -43 -80 0 -21 -4 -29 -12 -24 -6 4 -17
-1 -24 -11 -11 -15 -11 -20 3 -30 15 -11 13 -22 -25 -121 -23 -60 -42 -116
-42 -124 0 -8 9 -26 19 -39 l18 -23 11 28 c6 16 27 74 47 129 19 55 37 105 40
112 5 16 135 -27 149 -49 18 -29 -11 -50 -59 -43 -61 10 -73 -9 -46 -71 24
-54 108 -174 122 -174 17 0 10 18 -31 81 -22 34 -40 66 -40 71 0 20 34 19 70
-1 21 -11 52 -21 69 -21 l32 0 -6 -57 c-6 -53 -5 -60 18 -81 l25 -23 5 23 c3
13 13 79 23 146 l18 124 40 -6 c23 -3 73 -8 112 -12 66 -6 71 -8 81 -35 l11
-29 -99 0 c-79 0 -101 -3 -105 -15 -9 -23 4 -61 31 -92 21 -24 26 -26 35 -13
5 8 10 27 10 43 0 27 1 27 65 27 58 0 65 2 65 20 0 22 10 26 28 8 8 -8 6 -17
-8 -36 -46 -58 -6 -132 70 -132 22 0 59 9 80 20 40 20 40 20 40 1 0 -20 34
-51 55 -51 8 0 7 38 -1 128 -7 70 -13 134 -13 143 -1 13 16 19 82 29 45 6 92
14 104 17 18 4 23 -1 32 -34 19 -67 14 -99 -20 -127 -34 -29 -74 -34 -83 -10
-9 25 12 54 45 61 59 11 46 45 -17 45 -45 0 -74 -29 -74 -74 0 -44 16 -66 58
-79 31 -9 45 -8 76 5 50 21 54 20 58 -6 3 -22 53 -56 65 -44 3 3 -2 36 -12 74
-14 58 -14 73 -4 91 18 27 67 45 85 30 21 -17 17 -35 -15 -62 -28 -23 -29 -26
-13 -40 23 -21 49 -6 68 39 19 45 4 81 -41 100 -30 12 -40 12 -74 0 -34 -11
-41 -11 -45 1 -15 39 -6 50 54 66 33 10 64 17 69 17 5 0 27 -52 48 -116 31
-96 42 -118 62 -126 49 -18 49 -6 0 127 -26 72 -48 132 -49 135 0 3 14 11 31
17 21 8 30 17 27 30 -4 24 -5 23 -133 -19 -141 -47 -291 -77 -417 -85 -54 -3
-98 -9 -98 -13 0 -12 36 -40 52 -40 21 0 28 -21 28 -83 -1 -76 -42 -117 -117
-117 -39 0 -43 2 -43 25 0 30 30 51 89 60 l44 7 -24 19 c-17 14 -34 18 -60 14
-25 -3 -40 0 -49 10 -10 13 -8 15 13 15 27 0 57 23 57 44 0 26 -38 48 -75 44
-19 -2 -35 0 -35 4 0 4 -33 8 -72 8 -71 0 -221 20 -304 41 -39 10 -42 14 -47
51 -7 53 -51 116 -92 134 -39 16 -42 16 -72 4z m101 -69 c18 -19 47 -93 41
-100 -7 -6 -140 42 -147 53 -34 50 64 93 106 47z m182 -184 c1 -1 -1 -19 -4
-40 -6 -49 -36 -66 -81 -47 -29 11 -30 14 -16 33 8 12 15 33 15 48 0 26 1 27
42 17 23 -5 43 -10 44 -11z m368 -13 c28 -11 18 -34 -14 -34 -30 0 -43 23 -17
33 6 3 13 6 14 6 1 1 8 -2 17 -5z"/>
<path d="M1893 173 c-9 -3 -10 -10 -3 -24 8 -14 17 -17 40 -12 18 3 36 0 46
-8 42 -35 -80 -53 -161 -24 -81 30 -91 9 -12 -25 36 -16 72 -23 116 -24 57 0
66 3 87 27 14 17 20 34 17 48 -9 34 -88 59 -130 42z"/>
</g>
</svg>
